G04 #@! TF.GenerationSoftware,KiCad,Pcbnew,(5.1.2-1)-1*
G04 #@! TF.CreationDate,2019-08-26T15:35:47+02:00*
G04 #@! TF.ProjectId,brett,62726574-742e-46b6-9963-61645f706362,A*
G04 #@! TF.SameCoordinates,Original*
G04 #@! TF.FileFunction,Copper,L1,Top*
G04 #@! TF.FilePolarity,Positive*
%FSLAX46Y46*%
G04 Gerber Fmt 4.6, Leading zero omitted, Abs format (unit mm)*
G04 Created by KiCad (PCBNEW (5.1.2-1)-1) date 2019-08-26 15:35:47*
%MOMM*%
%LPD*%
G04 APERTURE LIST*
%ADD10C,0.100000*%
%ADD11O,1.700000X1.700000*%
%ADD12R,1.700000X1.700000*%
%ADD13R,1.879600X1.879600*%
%ADD14C,1.879600*%
%ADD15O,1.600000X1.600000*%
%ADD16R,1.600000X1.600000*%
%ADD17C,0.500000*%
%ADD18R,1.500000X1.000000*%
%ADD19C,1.600000*%
%ADD20O,2.500000X1.500000*%
%ADD21R,2.500000X1.500000*%
%ADD22R,1.050000X1.500000*%
%ADD23O,1.050000X1.500000*%
%ADD24C,2.100000*%
%ADD25R,2.100000X2.100000*%
%ADD26C,2.010000*%
%ADD27C,0.800000*%
%ADD28C,0.500000*%
%ADD29C,0.400000*%
%ADD30C,1.500000*%
G04 APERTURE END LIST*
D10*
G36*
X65105000Y-86942500D02*
G01*
X65105000Y-86442500D01*
X65705000Y-86442500D01*
X65705000Y-86942500D01*
X65105000Y-86942500D01*
G37*
G36*
X66022500Y-89270000D02*
G01*
X66022500Y-89770000D01*
X65422500Y-89770000D01*
X65422500Y-89270000D01*
X66022500Y-89270000D01*
G37*
G36*
X106345000Y-67997500D02*
G01*
X106345000Y-68497500D01*
X105745000Y-68497500D01*
X105745000Y-67997500D01*
X106345000Y-67997500D01*
G37*
G36*
X105427500Y-65670000D02*
G01*
X105427500Y-65170000D01*
X106027500Y-65170000D01*
X106027500Y-65670000D01*
X105427500Y-65670000D01*
G37*
G36*
X106345000Y-97207500D02*
G01*
X106345000Y-97707500D01*
X105745000Y-97707500D01*
X105745000Y-97207500D01*
X106345000Y-97207500D01*
G37*
G36*
X105427500Y-94880000D02*
G01*
X105427500Y-94380000D01*
X106027500Y-94380000D01*
X106027500Y-94880000D01*
X105427500Y-94880000D01*
G37*
G36*
X106345000Y-126417500D02*
G01*
X106345000Y-126917500D01*
X105745000Y-126917500D01*
X105745000Y-126417500D01*
X106345000Y-126417500D01*
G37*
G36*
X105427500Y-124090000D02*
G01*
X105427500Y-123590000D01*
X106027500Y-123590000D01*
X106027500Y-124090000D01*
X105427500Y-124090000D01*
G37*
G36*
X65105000Y-116152500D02*
G01*
X65105000Y-115652500D01*
X65705000Y-115652500D01*
X65705000Y-116152500D01*
X65105000Y-116152500D01*
G37*
G36*
X65705000Y-118767500D02*
G01*
X65705000Y-119267500D01*
X65105000Y-119267500D01*
X65105000Y-118767500D01*
X65705000Y-118767500D01*
G37*
G36*
X65105000Y-57732500D02*
G01*
X65105000Y-57232500D01*
X65705000Y-57232500D01*
X65705000Y-57732500D01*
X65105000Y-57732500D01*
G37*
G36*
X66022500Y-60060000D02*
G01*
X66022500Y-60560000D01*
X65422500Y-60560000D01*
X65422500Y-60060000D01*
X66022500Y-60060000D01*
G37*
D11*
X100647500Y-104775000D03*
X100647500Y-102235000D03*
X100647500Y-99695000D03*
X100647500Y-97155000D03*
X100647500Y-94615000D03*
D12*
X100647500Y-92075000D03*
D11*
X100647500Y-89535000D03*
X100647500Y-86995000D03*
X100647500Y-84455000D03*
D12*
X100647500Y-81915000D03*
D13*
X73660000Y-71755000D03*
D14*
X73660000Y-74295000D03*
X73660000Y-76835000D03*
X73660000Y-79375000D03*
X73660000Y-81915000D03*
X73660000Y-84455000D03*
X73660000Y-86995000D03*
X73660000Y-89535000D03*
X73660000Y-92075000D03*
X73660000Y-94615000D03*
X73660000Y-97155000D03*
X73660000Y-99695000D03*
X73660000Y-102235000D03*
X73660000Y-104775000D03*
X73660000Y-107315000D03*
X73660000Y-109855000D03*
X73660000Y-112395000D03*
X73660000Y-114935000D03*
X73660000Y-117475000D03*
X73660000Y-120015000D03*
X96520000Y-120015000D03*
X96520000Y-117475000D03*
X96520000Y-114935000D03*
X96520000Y-112395000D03*
X96520000Y-109855000D03*
X96520000Y-107315000D03*
X96520000Y-104775000D03*
X96520000Y-102235000D03*
X96520000Y-99695000D03*
X96520000Y-97155000D03*
X96520000Y-94615000D03*
X96520000Y-92075000D03*
X96520000Y-89535000D03*
X96520000Y-86995000D03*
X96520000Y-84455000D03*
X96520000Y-81915000D03*
X96520000Y-79375000D03*
X96520000Y-76835000D03*
X96520000Y-74295000D03*
D13*
X96520000Y-71755000D03*
D15*
X96520000Y-139700000D03*
X78740000Y-132080000D03*
X93980000Y-139700000D03*
X81280000Y-132080000D03*
X91440000Y-139700000D03*
X83820000Y-132080000D03*
X88900000Y-139700000D03*
X86360000Y-132080000D03*
X86360000Y-139700000D03*
X88900000Y-132080000D03*
X83820000Y-139700000D03*
X91440000Y-132080000D03*
X81280000Y-139700000D03*
X93980000Y-132080000D03*
X78740000Y-139700000D03*
D16*
X96520000Y-132080000D03*
D11*
X104140000Y-74930000D03*
X104140000Y-72390000D03*
X104140000Y-69850000D03*
X104140000Y-67310000D03*
X104140000Y-64770000D03*
X104140000Y-62230000D03*
X104140000Y-59690000D03*
X104140000Y-57150000D03*
X116840000Y-57150000D03*
X116840000Y-59690000D03*
X116840000Y-62230000D03*
X116840000Y-64770000D03*
X116840000Y-67310000D03*
X116840000Y-69850000D03*
X116840000Y-72390000D03*
X116840000Y-74930000D03*
X104140000Y-104140000D03*
X104140000Y-101600000D03*
X104140000Y-99060000D03*
X104140000Y-96520000D03*
X104140000Y-93980000D03*
X104140000Y-91440000D03*
X104140000Y-88900000D03*
X104140000Y-86360000D03*
X116840000Y-86360000D03*
X116840000Y-88900000D03*
X116840000Y-91440000D03*
X116840000Y-93980000D03*
X116840000Y-96520000D03*
X116840000Y-99060000D03*
X116840000Y-101600000D03*
X116840000Y-104140000D03*
X104140000Y-133350000D03*
X104140000Y-130810000D03*
X104140000Y-128270000D03*
X104140000Y-125730000D03*
X104140000Y-123190000D03*
X104140000Y-120650000D03*
X104140000Y-118110000D03*
X104140000Y-115570000D03*
X116840000Y-115570000D03*
X116840000Y-118110000D03*
X116840000Y-120650000D03*
X116840000Y-123190000D03*
X116840000Y-125730000D03*
X116840000Y-128270000D03*
X116840000Y-130810000D03*
X116840000Y-133350000D03*
X67310000Y-109220000D03*
X67310000Y-111760000D03*
X67310000Y-114300000D03*
X67310000Y-116840000D03*
X67310000Y-119380000D03*
X67310000Y-121920000D03*
X67310000Y-124460000D03*
X67310000Y-127000000D03*
X54610000Y-127000000D03*
X54610000Y-124460000D03*
X54610000Y-121920000D03*
X54610000Y-119380000D03*
X54610000Y-116840000D03*
X54610000Y-114300000D03*
X54610000Y-111760000D03*
X54610000Y-109220000D03*
X67310000Y-80010000D03*
X67310000Y-82550000D03*
X67310000Y-85090000D03*
X67310000Y-87630000D03*
X67310000Y-90170000D03*
X67310000Y-92710000D03*
X67310000Y-95250000D03*
X67310000Y-97790000D03*
X54610000Y-97790000D03*
X54610000Y-95250000D03*
X54610000Y-92710000D03*
X54610000Y-90170000D03*
X54610000Y-87630000D03*
X54610000Y-85090000D03*
X54610000Y-82550000D03*
X54610000Y-80010000D03*
X50800000Y-92710000D03*
X50800000Y-90170000D03*
X50800000Y-87630000D03*
D12*
X50800000Y-85090000D03*
D17*
X65405000Y-87342500D03*
D10*
G36*
X66155000Y-86792500D02*
G01*
X66155000Y-87342500D01*
X66154398Y-87342500D01*
X66154398Y-87367034D01*
X66149588Y-87415865D01*
X66140016Y-87463990D01*
X66125772Y-87510945D01*
X66106995Y-87556278D01*
X66083864Y-87599551D01*
X66056604Y-87640350D01*
X66025476Y-87678279D01*
X65990779Y-87712976D01*
X65952850Y-87744104D01*
X65912051Y-87771364D01*
X65868778Y-87794495D01*
X65823445Y-87813272D01*
X65776490Y-87827516D01*
X65728365Y-87837088D01*
X65679534Y-87841898D01*
X65655000Y-87841898D01*
X65655000Y-87842500D01*
X65155000Y-87842500D01*
X65155000Y-87841898D01*
X65130466Y-87841898D01*
X65081635Y-87837088D01*
X65033510Y-87827516D01*
X64986555Y-87813272D01*
X64941222Y-87794495D01*
X64897949Y-87771364D01*
X64857150Y-87744104D01*
X64819221Y-87712976D01*
X64784524Y-87678279D01*
X64753396Y-87640350D01*
X64726136Y-87599551D01*
X64703005Y-87556278D01*
X64684228Y-87510945D01*
X64669984Y-87463990D01*
X64660412Y-87415865D01*
X64655602Y-87367034D01*
X64655602Y-87342500D01*
X64655000Y-87342500D01*
X64655000Y-86792500D01*
X66155000Y-86792500D01*
X66155000Y-86792500D01*
G37*
D18*
X65405000Y-86042500D03*
D17*
X65405000Y-84742500D03*
D10*
G36*
X64655602Y-84742500D02*
G01*
X64655602Y-84717966D01*
X64660412Y-84669135D01*
X64669984Y-84621010D01*
X64684228Y-84574055D01*
X64703005Y-84528722D01*
X64726136Y-84485449D01*
X64753396Y-84444650D01*
X64784524Y-84406721D01*
X64819221Y-84372024D01*
X64857150Y-84340896D01*
X64897949Y-84313636D01*
X64941222Y-84290505D01*
X64986555Y-84271728D01*
X65033510Y-84257484D01*
X65081635Y-84247912D01*
X65130466Y-84243102D01*
X65155000Y-84243102D01*
X65155000Y-84242500D01*
X65655000Y-84242500D01*
X65655000Y-84243102D01*
X65679534Y-84243102D01*
X65728365Y-84247912D01*
X65776490Y-84257484D01*
X65823445Y-84271728D01*
X65868778Y-84290505D01*
X65912051Y-84313636D01*
X65952850Y-84340896D01*
X65990779Y-84372024D01*
X66025476Y-84406721D01*
X66056604Y-84444650D01*
X66083864Y-84485449D01*
X66106995Y-84528722D01*
X66125772Y-84574055D01*
X66140016Y-84621010D01*
X66149588Y-84669135D01*
X66154398Y-84717966D01*
X66154398Y-84742500D01*
X66155000Y-84742500D01*
X66155000Y-85292500D01*
X64655000Y-85292500D01*
X64655000Y-84742500D01*
X64655602Y-84742500D01*
X64655602Y-84742500D01*
G37*
D17*
X65722500Y-88870000D03*
D10*
G36*
X64972500Y-89420000D02*
G01*
X64972500Y-88870000D01*
X64973102Y-88870000D01*
X64973102Y-88845466D01*
X64977912Y-88796635D01*
X64987484Y-88748510D01*
X65001728Y-88701555D01*
X65020505Y-88656222D01*
X65043636Y-88612949D01*
X65070896Y-88572150D01*
X65102024Y-88534221D01*
X65136721Y-88499524D01*
X65174650Y-88468396D01*
X65215449Y-88441136D01*
X65258722Y-88418005D01*
X65304055Y-88399228D01*
X65351010Y-88384984D01*
X65399135Y-88375412D01*
X65447966Y-88370602D01*
X65472500Y-88370602D01*
X65472500Y-88370000D01*
X65972500Y-88370000D01*
X65972500Y-88370602D01*
X65997034Y-88370602D01*
X66045865Y-88375412D01*
X66093990Y-88384984D01*
X66140945Y-88399228D01*
X66186278Y-88418005D01*
X66229551Y-88441136D01*
X66270350Y-88468396D01*
X66308279Y-88499524D01*
X66342976Y-88534221D01*
X66374104Y-88572150D01*
X66401364Y-88612949D01*
X66424495Y-88656222D01*
X66443272Y-88701555D01*
X66457516Y-88748510D01*
X66467088Y-88796635D01*
X66471898Y-88845466D01*
X66471898Y-88870000D01*
X66472500Y-88870000D01*
X66472500Y-89420000D01*
X64972500Y-89420000D01*
X64972500Y-89420000D01*
G37*
D18*
X65722500Y-90170000D03*
D17*
X65722500Y-91470000D03*
D10*
G36*
X66471898Y-91470000D02*
G01*
X66471898Y-91494534D01*
X66467088Y-91543365D01*
X66457516Y-91591490D01*
X66443272Y-91638445D01*
X66424495Y-91683778D01*
X66401364Y-91727051D01*
X66374104Y-91767850D01*
X66342976Y-91805779D01*
X66308279Y-91840476D01*
X66270350Y-91871604D01*
X66229551Y-91898864D01*
X66186278Y-91921995D01*
X66140945Y-91940772D01*
X66093990Y-91955016D01*
X66045865Y-91964588D01*
X65997034Y-91969398D01*
X65972500Y-91969398D01*
X65972500Y-91970000D01*
X65472500Y-91970000D01*
X65472500Y-91969398D01*
X65447966Y-91969398D01*
X65399135Y-91964588D01*
X65351010Y-91955016D01*
X65304055Y-91940772D01*
X65258722Y-91921995D01*
X65215449Y-91898864D01*
X65174650Y-91871604D01*
X65136721Y-91840476D01*
X65102024Y-91805779D01*
X65070896Y-91767850D01*
X65043636Y-91727051D01*
X65020505Y-91683778D01*
X65001728Y-91638445D01*
X64987484Y-91591490D01*
X64977912Y-91543365D01*
X64973102Y-91494534D01*
X64973102Y-91470000D01*
X64972500Y-91470000D01*
X64972500Y-90920000D01*
X66472500Y-90920000D01*
X66472500Y-91470000D01*
X66471898Y-91470000D01*
X66471898Y-91470000D01*
G37*
D11*
X67310000Y-100965000D03*
X67310000Y-103505000D03*
D12*
X67310000Y-106045000D03*
D19*
X51117500Y-105100000D03*
D16*
X51117500Y-101600000D03*
D11*
X67310000Y-50800000D03*
X67310000Y-53340000D03*
X67310000Y-55880000D03*
X67310000Y-58420000D03*
X67310000Y-60960000D03*
X67310000Y-63500000D03*
X67310000Y-66040000D03*
X67310000Y-68580000D03*
X54610000Y-68580000D03*
X54610000Y-66040000D03*
X54610000Y-63500000D03*
X54610000Y-60960000D03*
X54610000Y-58420000D03*
X54610000Y-55880000D03*
X54610000Y-53340000D03*
X54610000Y-50800000D03*
X120650000Y-62230000D03*
X120650000Y-64770000D03*
X120650000Y-67310000D03*
D12*
X120650000Y-69850000D03*
D11*
X120650000Y-91440000D03*
X120650000Y-93980000D03*
X120650000Y-96520000D03*
D12*
X120650000Y-99060000D03*
D11*
X120650000Y-120650000D03*
X120650000Y-123190000D03*
X120650000Y-125730000D03*
D12*
X120650000Y-128270000D03*
D11*
X50800000Y-121920000D03*
X50800000Y-119380000D03*
X50800000Y-116840000D03*
D12*
X50800000Y-114300000D03*
X93345000Y-86995000D03*
D17*
X106045000Y-67597500D03*
D10*
G36*
X105295000Y-68147500D02*
G01*
X105295000Y-67597500D01*
X105295602Y-67597500D01*
X105295602Y-67572966D01*
X105300412Y-67524135D01*
X105309984Y-67476010D01*
X105324228Y-67429055D01*
X105343005Y-67383722D01*
X105366136Y-67340449D01*
X105393396Y-67299650D01*
X105424524Y-67261721D01*
X105459221Y-67227024D01*
X105497150Y-67195896D01*
X105537949Y-67168636D01*
X105581222Y-67145505D01*
X105626555Y-67126728D01*
X105673510Y-67112484D01*
X105721635Y-67102912D01*
X105770466Y-67098102D01*
X105795000Y-67098102D01*
X105795000Y-67097500D01*
X106295000Y-67097500D01*
X106295000Y-67098102D01*
X106319534Y-67098102D01*
X106368365Y-67102912D01*
X106416490Y-67112484D01*
X106463445Y-67126728D01*
X106508778Y-67145505D01*
X106552051Y-67168636D01*
X106592850Y-67195896D01*
X106630779Y-67227024D01*
X106665476Y-67261721D01*
X106696604Y-67299650D01*
X106723864Y-67340449D01*
X106746995Y-67383722D01*
X106765772Y-67429055D01*
X106780016Y-67476010D01*
X106789588Y-67524135D01*
X106794398Y-67572966D01*
X106794398Y-67597500D01*
X106795000Y-67597500D01*
X106795000Y-68147500D01*
X105295000Y-68147500D01*
X105295000Y-68147500D01*
G37*
D18*
X106045000Y-68897500D03*
D17*
X106045000Y-70197500D03*
D10*
G36*
X106794398Y-70197500D02*
G01*
X106794398Y-70222034D01*
X106789588Y-70270865D01*
X106780016Y-70318990D01*
X106765772Y-70365945D01*
X106746995Y-70411278D01*
X106723864Y-70454551D01*
X106696604Y-70495350D01*
X106665476Y-70533279D01*
X106630779Y-70567976D01*
X106592850Y-70599104D01*
X106552051Y-70626364D01*
X106508778Y-70649495D01*
X106463445Y-70668272D01*
X106416490Y-70682516D01*
X106368365Y-70692088D01*
X106319534Y-70696898D01*
X106295000Y-70696898D01*
X106295000Y-70697500D01*
X105795000Y-70697500D01*
X105795000Y-70696898D01*
X105770466Y-70696898D01*
X105721635Y-70692088D01*
X105673510Y-70682516D01*
X105626555Y-70668272D01*
X105581222Y-70649495D01*
X105537949Y-70626364D01*
X105497150Y-70599104D01*
X105459221Y-70567976D01*
X105424524Y-70533279D01*
X105393396Y-70495350D01*
X105366136Y-70454551D01*
X105343005Y-70411278D01*
X105324228Y-70365945D01*
X105309984Y-70318990D01*
X105300412Y-70270865D01*
X105295602Y-70222034D01*
X105295602Y-70197500D01*
X105295000Y-70197500D01*
X105295000Y-69647500D01*
X106795000Y-69647500D01*
X106795000Y-70197500D01*
X106794398Y-70197500D01*
X106794398Y-70197500D01*
G37*
D17*
X105727500Y-66070000D03*
D10*
G36*
X106477500Y-65520000D02*
G01*
X106477500Y-66070000D01*
X106476898Y-66070000D01*
X106476898Y-66094534D01*
X106472088Y-66143365D01*
X106462516Y-66191490D01*
X106448272Y-66238445D01*
X106429495Y-66283778D01*
X106406364Y-66327051D01*
X106379104Y-66367850D01*
X106347976Y-66405779D01*
X106313279Y-66440476D01*
X106275350Y-66471604D01*
X106234551Y-66498864D01*
X106191278Y-66521995D01*
X106145945Y-66540772D01*
X106098990Y-66555016D01*
X106050865Y-66564588D01*
X106002034Y-66569398D01*
X105977500Y-66569398D01*
X105977500Y-66570000D01*
X105477500Y-66570000D01*
X105477500Y-66569398D01*
X105452966Y-66569398D01*
X105404135Y-66564588D01*
X105356010Y-66555016D01*
X105309055Y-66540772D01*
X105263722Y-66521995D01*
X105220449Y-66498864D01*
X105179650Y-66471604D01*
X105141721Y-66440476D01*
X105107024Y-66405779D01*
X105075896Y-66367850D01*
X105048636Y-66327051D01*
X105025505Y-66283778D01*
X105006728Y-66238445D01*
X104992484Y-66191490D01*
X104982912Y-66143365D01*
X104978102Y-66094534D01*
X104978102Y-66070000D01*
X104977500Y-66070000D01*
X104977500Y-65520000D01*
X106477500Y-65520000D01*
X106477500Y-65520000D01*
G37*
D18*
X105727500Y-64770000D03*
D17*
X105727500Y-63470000D03*
D10*
G36*
X104978102Y-63470000D02*
G01*
X104978102Y-63445466D01*
X104982912Y-63396635D01*
X104992484Y-63348510D01*
X105006728Y-63301555D01*
X105025505Y-63256222D01*
X105048636Y-63212949D01*
X105075896Y-63172150D01*
X105107024Y-63134221D01*
X105141721Y-63099524D01*
X105179650Y-63068396D01*
X105220449Y-63041136D01*
X105263722Y-63018005D01*
X105309055Y-62999228D01*
X105356010Y-62984984D01*
X105404135Y-62975412D01*
X105452966Y-62970602D01*
X105477500Y-62970602D01*
X105477500Y-62970000D01*
X105977500Y-62970000D01*
X105977500Y-62970602D01*
X106002034Y-62970602D01*
X106050865Y-62975412D01*
X106098990Y-62984984D01*
X106145945Y-62999228D01*
X106191278Y-63018005D01*
X106234551Y-63041136D01*
X106275350Y-63068396D01*
X106313279Y-63099524D01*
X106347976Y-63134221D01*
X106379104Y-63172150D01*
X106406364Y-63212949D01*
X106429495Y-63256222D01*
X106448272Y-63301555D01*
X106462516Y-63348510D01*
X106472088Y-63396635D01*
X106476898Y-63445466D01*
X106476898Y-63470000D01*
X106477500Y-63470000D01*
X106477500Y-64020000D01*
X104977500Y-64020000D01*
X104977500Y-63470000D01*
X104978102Y-63470000D01*
X104978102Y-63470000D01*
G37*
D17*
X106045000Y-96807500D03*
D10*
G36*
X105295000Y-97357500D02*
G01*
X105295000Y-96807500D01*
X105295602Y-96807500D01*
X105295602Y-96782966D01*
X105300412Y-96734135D01*
X105309984Y-96686010D01*
X105324228Y-96639055D01*
X105343005Y-96593722D01*
X105366136Y-96550449D01*
X105393396Y-96509650D01*
X105424524Y-96471721D01*
X105459221Y-96437024D01*
X105497150Y-96405896D01*
X105537949Y-96378636D01*
X105581222Y-96355505D01*
X105626555Y-96336728D01*
X105673510Y-96322484D01*
X105721635Y-96312912D01*
X105770466Y-96308102D01*
X105795000Y-96308102D01*
X105795000Y-96307500D01*
X106295000Y-96307500D01*
X106295000Y-96308102D01*
X106319534Y-96308102D01*
X106368365Y-96312912D01*
X106416490Y-96322484D01*
X106463445Y-96336728D01*
X106508778Y-96355505D01*
X106552051Y-96378636D01*
X106592850Y-96405896D01*
X106630779Y-96437024D01*
X106665476Y-96471721D01*
X106696604Y-96509650D01*
X106723864Y-96550449D01*
X106746995Y-96593722D01*
X106765772Y-96639055D01*
X106780016Y-96686010D01*
X106789588Y-96734135D01*
X106794398Y-96782966D01*
X106794398Y-96807500D01*
X106795000Y-96807500D01*
X106795000Y-97357500D01*
X105295000Y-97357500D01*
X105295000Y-97357500D01*
G37*
D18*
X106045000Y-98107500D03*
D17*
X106045000Y-99407500D03*
D10*
G36*
X106794398Y-99407500D02*
G01*
X106794398Y-99432034D01*
X106789588Y-99480865D01*
X106780016Y-99528990D01*
X106765772Y-99575945D01*
X106746995Y-99621278D01*
X106723864Y-99664551D01*
X106696604Y-99705350D01*
X106665476Y-99743279D01*
X106630779Y-99777976D01*
X106592850Y-99809104D01*
X106552051Y-99836364D01*
X106508778Y-99859495D01*
X106463445Y-99878272D01*
X106416490Y-99892516D01*
X106368365Y-99902088D01*
X106319534Y-99906898D01*
X106295000Y-99906898D01*
X106295000Y-99907500D01*
X105795000Y-99907500D01*
X105795000Y-99906898D01*
X105770466Y-99906898D01*
X105721635Y-99902088D01*
X105673510Y-99892516D01*
X105626555Y-99878272D01*
X105581222Y-99859495D01*
X105537949Y-99836364D01*
X105497150Y-99809104D01*
X105459221Y-99777976D01*
X105424524Y-99743279D01*
X105393396Y-99705350D01*
X105366136Y-99664551D01*
X105343005Y-99621278D01*
X105324228Y-99575945D01*
X105309984Y-99528990D01*
X105300412Y-99480865D01*
X105295602Y-99432034D01*
X105295602Y-99407500D01*
X105295000Y-99407500D01*
X105295000Y-98857500D01*
X106795000Y-98857500D01*
X106795000Y-99407500D01*
X106794398Y-99407500D01*
X106794398Y-99407500D01*
G37*
D17*
X105727500Y-95280000D03*
D10*
G36*
X106477500Y-94730000D02*
G01*
X106477500Y-95280000D01*
X106476898Y-95280000D01*
X106476898Y-95304534D01*
X106472088Y-95353365D01*
X106462516Y-95401490D01*
X106448272Y-95448445D01*
X106429495Y-95493778D01*
X106406364Y-95537051D01*
X106379104Y-95577850D01*
X106347976Y-95615779D01*
X106313279Y-95650476D01*
X106275350Y-95681604D01*
X106234551Y-95708864D01*
X106191278Y-95731995D01*
X106145945Y-95750772D01*
X106098990Y-95765016D01*
X106050865Y-95774588D01*
X106002034Y-95779398D01*
X105977500Y-95779398D01*
X105977500Y-95780000D01*
X105477500Y-95780000D01*
X105477500Y-95779398D01*
X105452966Y-95779398D01*
X105404135Y-95774588D01*
X105356010Y-95765016D01*
X105309055Y-95750772D01*
X105263722Y-95731995D01*
X105220449Y-95708864D01*
X105179650Y-95681604D01*
X105141721Y-95650476D01*
X105107024Y-95615779D01*
X105075896Y-95577850D01*
X105048636Y-95537051D01*
X105025505Y-95493778D01*
X105006728Y-95448445D01*
X104992484Y-95401490D01*
X104982912Y-95353365D01*
X104978102Y-95304534D01*
X104978102Y-95280000D01*
X104977500Y-95280000D01*
X104977500Y-94730000D01*
X106477500Y-94730000D01*
X106477500Y-94730000D01*
G37*
D18*
X105727500Y-93980000D03*
D17*
X105727500Y-92680000D03*
D10*
G36*
X104978102Y-92680000D02*
G01*
X104978102Y-92655466D01*
X104982912Y-92606635D01*
X104992484Y-92558510D01*
X105006728Y-92511555D01*
X105025505Y-92466222D01*
X105048636Y-92422949D01*
X105075896Y-92382150D01*
X105107024Y-92344221D01*
X105141721Y-92309524D01*
X105179650Y-92278396D01*
X105220449Y-92251136D01*
X105263722Y-92228005D01*
X105309055Y-92209228D01*
X105356010Y-92194984D01*
X105404135Y-92185412D01*
X105452966Y-92180602D01*
X105477500Y-92180602D01*
X105477500Y-92180000D01*
X105977500Y-92180000D01*
X105977500Y-92180602D01*
X106002034Y-92180602D01*
X106050865Y-92185412D01*
X106098990Y-92194984D01*
X106145945Y-92209228D01*
X106191278Y-92228005D01*
X106234551Y-92251136D01*
X106275350Y-92278396D01*
X106313279Y-92309524D01*
X106347976Y-92344221D01*
X106379104Y-92382150D01*
X106406364Y-92422949D01*
X106429495Y-92466222D01*
X106448272Y-92511555D01*
X106462516Y-92558510D01*
X106472088Y-92606635D01*
X106476898Y-92655466D01*
X106476898Y-92680000D01*
X106477500Y-92680000D01*
X106477500Y-93230000D01*
X104977500Y-93230000D01*
X104977500Y-92680000D01*
X104978102Y-92680000D01*
X104978102Y-92680000D01*
G37*
D17*
X106045000Y-126017500D03*
D10*
G36*
X105295000Y-126567500D02*
G01*
X105295000Y-126017500D01*
X105295602Y-126017500D01*
X105295602Y-125992966D01*
X105300412Y-125944135D01*
X105309984Y-125896010D01*
X105324228Y-125849055D01*
X105343005Y-125803722D01*
X105366136Y-125760449D01*
X105393396Y-125719650D01*
X105424524Y-125681721D01*
X105459221Y-125647024D01*
X105497150Y-125615896D01*
X105537949Y-125588636D01*
X105581222Y-125565505D01*
X105626555Y-125546728D01*
X105673510Y-125532484D01*
X105721635Y-125522912D01*
X105770466Y-125518102D01*
X105795000Y-125518102D01*
X105795000Y-125517500D01*
X106295000Y-125517500D01*
X106295000Y-125518102D01*
X106319534Y-125518102D01*
X106368365Y-125522912D01*
X106416490Y-125532484D01*
X106463445Y-125546728D01*
X106508778Y-125565505D01*
X106552051Y-125588636D01*
X106592850Y-125615896D01*
X106630779Y-125647024D01*
X106665476Y-125681721D01*
X106696604Y-125719650D01*
X106723864Y-125760449D01*
X106746995Y-125803722D01*
X106765772Y-125849055D01*
X106780016Y-125896010D01*
X106789588Y-125944135D01*
X106794398Y-125992966D01*
X106794398Y-126017500D01*
X106795000Y-126017500D01*
X106795000Y-126567500D01*
X105295000Y-126567500D01*
X105295000Y-126567500D01*
G37*
D18*
X106045000Y-127317500D03*
D17*
X106045000Y-128617500D03*
D10*
G36*
X106794398Y-128617500D02*
G01*
X106794398Y-128642034D01*
X106789588Y-128690865D01*
X106780016Y-128738990D01*
X106765772Y-128785945D01*
X106746995Y-128831278D01*
X106723864Y-128874551D01*
X106696604Y-128915350D01*
X106665476Y-128953279D01*
X106630779Y-128987976D01*
X106592850Y-129019104D01*
X106552051Y-129046364D01*
X106508778Y-129069495D01*
X106463445Y-129088272D01*
X106416490Y-129102516D01*
X106368365Y-129112088D01*
X106319534Y-129116898D01*
X106295000Y-129116898D01*
X106295000Y-129117500D01*
X105795000Y-129117500D01*
X105795000Y-129116898D01*
X105770466Y-129116898D01*
X105721635Y-129112088D01*
X105673510Y-129102516D01*
X105626555Y-129088272D01*
X105581222Y-129069495D01*
X105537949Y-129046364D01*
X105497150Y-129019104D01*
X105459221Y-128987976D01*
X105424524Y-128953279D01*
X105393396Y-128915350D01*
X105366136Y-128874551D01*
X105343005Y-128831278D01*
X105324228Y-128785945D01*
X105309984Y-128738990D01*
X105300412Y-128690865D01*
X105295602Y-128642034D01*
X105295602Y-128617500D01*
X105295000Y-128617500D01*
X105295000Y-128067500D01*
X106795000Y-128067500D01*
X106795000Y-128617500D01*
X106794398Y-128617500D01*
X106794398Y-128617500D01*
G37*
D17*
X105727500Y-124490000D03*
D10*
G36*
X106477500Y-123940000D02*
G01*
X106477500Y-124490000D01*
X106476898Y-124490000D01*
X106476898Y-124514534D01*
X106472088Y-124563365D01*
X106462516Y-124611490D01*
X106448272Y-124658445D01*
X106429495Y-124703778D01*
X106406364Y-124747051D01*
X106379104Y-124787850D01*
X106347976Y-124825779D01*
X106313279Y-124860476D01*
X106275350Y-124891604D01*
X106234551Y-124918864D01*
X106191278Y-124941995D01*
X106145945Y-124960772D01*
X106098990Y-124975016D01*
X106050865Y-124984588D01*
X106002034Y-124989398D01*
X105977500Y-124989398D01*
X105977500Y-124990000D01*
X105477500Y-124990000D01*
X105477500Y-124989398D01*
X105452966Y-124989398D01*
X105404135Y-124984588D01*
X105356010Y-124975016D01*
X105309055Y-124960772D01*
X105263722Y-124941995D01*
X105220449Y-124918864D01*
X105179650Y-124891604D01*
X105141721Y-124860476D01*
X105107024Y-124825779D01*
X105075896Y-124787850D01*
X105048636Y-124747051D01*
X105025505Y-124703778D01*
X105006728Y-124658445D01*
X104992484Y-124611490D01*
X104982912Y-124563365D01*
X104978102Y-124514534D01*
X104978102Y-124490000D01*
X104977500Y-124490000D01*
X104977500Y-123940000D01*
X106477500Y-123940000D01*
X106477500Y-123940000D01*
G37*
D18*
X105727500Y-123190000D03*
D17*
X105727500Y-121890000D03*
D10*
G36*
X104978102Y-121890000D02*
G01*
X104978102Y-121865466D01*
X104982912Y-121816635D01*
X104992484Y-121768510D01*
X105006728Y-121721555D01*
X105025505Y-121676222D01*
X105048636Y-121632949D01*
X105075896Y-121592150D01*
X105107024Y-121554221D01*
X105141721Y-121519524D01*
X105179650Y-121488396D01*
X105220449Y-121461136D01*
X105263722Y-121438005D01*
X105309055Y-121419228D01*
X105356010Y-121404984D01*
X105404135Y-121395412D01*
X105452966Y-121390602D01*
X105477500Y-121390602D01*
X105477500Y-121390000D01*
X105977500Y-121390000D01*
X105977500Y-121390602D01*
X106002034Y-121390602D01*
X106050865Y-121395412D01*
X106098990Y-121404984D01*
X106145945Y-121419228D01*
X106191278Y-121438005D01*
X106234551Y-121461136D01*
X106275350Y-121488396D01*
X106313279Y-121519524D01*
X106347976Y-121554221D01*
X106379104Y-121592150D01*
X106406364Y-121632949D01*
X106429495Y-121676222D01*
X106448272Y-121721555D01*
X106462516Y-121768510D01*
X106472088Y-121816635D01*
X106476898Y-121865466D01*
X106476898Y-121890000D01*
X106477500Y-121890000D01*
X106477500Y-122440000D01*
X104977500Y-122440000D01*
X104977500Y-121890000D01*
X104978102Y-121890000D01*
X104978102Y-121890000D01*
G37*
D17*
X65405000Y-116552500D03*
D10*
G36*
X66155000Y-116002500D02*
G01*
X66155000Y-116552500D01*
X66154398Y-116552500D01*
X66154398Y-116577034D01*
X66149588Y-116625865D01*
X66140016Y-116673990D01*
X66125772Y-116720945D01*
X66106995Y-116766278D01*
X66083864Y-116809551D01*
X66056604Y-116850350D01*
X66025476Y-116888279D01*
X65990779Y-116922976D01*
X65952850Y-116954104D01*
X65912051Y-116981364D01*
X65868778Y-117004495D01*
X65823445Y-117023272D01*
X65776490Y-117037516D01*
X65728365Y-117047088D01*
X65679534Y-117051898D01*
X65655000Y-117051898D01*
X65655000Y-117052500D01*
X65155000Y-117052500D01*
X65155000Y-117051898D01*
X65130466Y-117051898D01*
X65081635Y-117047088D01*
X65033510Y-117037516D01*
X64986555Y-117023272D01*
X64941222Y-117004495D01*
X64897949Y-116981364D01*
X64857150Y-116954104D01*
X64819221Y-116922976D01*
X64784524Y-116888279D01*
X64753396Y-116850350D01*
X64726136Y-116809551D01*
X64703005Y-116766278D01*
X64684228Y-116720945D01*
X64669984Y-116673990D01*
X64660412Y-116625865D01*
X64655602Y-116577034D01*
X64655602Y-116552500D01*
X64655000Y-116552500D01*
X64655000Y-116002500D01*
X66155000Y-116002500D01*
X66155000Y-116002500D01*
G37*
D18*
X65405000Y-115252500D03*
D17*
X65405000Y-113952500D03*
D10*
G36*
X64655602Y-113952500D02*
G01*
X64655602Y-113927966D01*
X64660412Y-113879135D01*
X64669984Y-113831010D01*
X64684228Y-113784055D01*
X64703005Y-113738722D01*
X64726136Y-113695449D01*
X64753396Y-113654650D01*
X64784524Y-113616721D01*
X64819221Y-113582024D01*
X64857150Y-113550896D01*
X64897949Y-113523636D01*
X64941222Y-113500505D01*
X64986555Y-113481728D01*
X65033510Y-113467484D01*
X65081635Y-113457912D01*
X65130466Y-113453102D01*
X65155000Y-113453102D01*
X65155000Y-113452500D01*
X65655000Y-113452500D01*
X65655000Y-113453102D01*
X65679534Y-113453102D01*
X65728365Y-113457912D01*
X65776490Y-113467484D01*
X65823445Y-113481728D01*
X65868778Y-113500505D01*
X65912051Y-113523636D01*
X65952850Y-113550896D01*
X65990779Y-113582024D01*
X66025476Y-113616721D01*
X66056604Y-113654650D01*
X66083864Y-113695449D01*
X66106995Y-113738722D01*
X66125772Y-113784055D01*
X66140016Y-113831010D01*
X66149588Y-113879135D01*
X66154398Y-113927966D01*
X66154398Y-113952500D01*
X66155000Y-113952500D01*
X66155000Y-114502500D01*
X64655000Y-114502500D01*
X64655000Y-113952500D01*
X64655602Y-113952500D01*
X64655602Y-113952500D01*
G37*
D17*
X65405000Y-118367500D03*
D10*
G36*
X64655000Y-118917500D02*
G01*
X64655000Y-118367500D01*
X64655602Y-118367500D01*
X64655602Y-118342966D01*
X64660412Y-118294135D01*
X64669984Y-118246010D01*
X64684228Y-118199055D01*
X64703005Y-118153722D01*
X64726136Y-118110449D01*
X64753396Y-118069650D01*
X64784524Y-118031721D01*
X64819221Y-117997024D01*
X64857150Y-117965896D01*
X64897949Y-117938636D01*
X64941222Y-117915505D01*
X64986555Y-117896728D01*
X65033510Y-117882484D01*
X65081635Y-117872912D01*
X65130466Y-117868102D01*
X65155000Y-117868102D01*
X65155000Y-117867500D01*
X65655000Y-117867500D01*
X65655000Y-117868102D01*
X65679534Y-117868102D01*
X65728365Y-117872912D01*
X65776490Y-117882484D01*
X65823445Y-117896728D01*
X65868778Y-117915505D01*
X65912051Y-117938636D01*
X65952850Y-117965896D01*
X65990779Y-117997024D01*
X66025476Y-118031721D01*
X66056604Y-118069650D01*
X66083864Y-118110449D01*
X66106995Y-118153722D01*
X66125772Y-118199055D01*
X66140016Y-118246010D01*
X66149588Y-118294135D01*
X66154398Y-118342966D01*
X66154398Y-118367500D01*
X66155000Y-118367500D01*
X66155000Y-118917500D01*
X64655000Y-118917500D01*
X64655000Y-118917500D01*
G37*
D18*
X65405000Y-119667500D03*
D17*
X65405000Y-120967500D03*
D10*
G36*
X66154398Y-120967500D02*
G01*
X66154398Y-120992034D01*
X66149588Y-121040865D01*
X66140016Y-121088990D01*
X66125772Y-121135945D01*
X66106995Y-121181278D01*
X66083864Y-121224551D01*
X66056604Y-121265350D01*
X66025476Y-121303279D01*
X65990779Y-121337976D01*
X65952850Y-121369104D01*
X65912051Y-121396364D01*
X65868778Y-121419495D01*
X65823445Y-121438272D01*
X65776490Y-121452516D01*
X65728365Y-121462088D01*
X65679534Y-121466898D01*
X65655000Y-121466898D01*
X65655000Y-121467500D01*
X65155000Y-121467500D01*
X65155000Y-121466898D01*
X65130466Y-121466898D01*
X65081635Y-121462088D01*
X65033510Y-121452516D01*
X64986555Y-121438272D01*
X64941222Y-121419495D01*
X64897949Y-121396364D01*
X64857150Y-121369104D01*
X64819221Y-121337976D01*
X64784524Y-121303279D01*
X64753396Y-121265350D01*
X64726136Y-121224551D01*
X64703005Y-121181278D01*
X64684228Y-121135945D01*
X64669984Y-121088990D01*
X64660412Y-121040865D01*
X64655602Y-120992034D01*
X64655602Y-120967500D01*
X64655000Y-120967500D01*
X64655000Y-120417500D01*
X66155000Y-120417500D01*
X66155000Y-120967500D01*
X66154398Y-120967500D01*
X66154398Y-120967500D01*
G37*
D11*
X109220000Y-53340000D03*
X106680000Y-53340000D03*
D12*
X104140000Y-53340000D03*
D11*
X104140000Y-83185000D03*
X104140000Y-80645000D03*
D12*
X104140000Y-78105000D03*
D11*
X104140000Y-112395000D03*
X104140000Y-109855000D03*
D12*
X104140000Y-107315000D03*
D11*
X48895000Y-131127500D03*
X51435000Y-131127500D03*
D12*
X53975000Y-131127500D03*
D19*
X111442500Y-79050000D03*
D16*
X111442500Y-82550000D03*
D19*
X120332500Y-79050000D03*
D16*
X120332500Y-82550000D03*
D19*
X120332500Y-108260000D03*
D16*
X120332500Y-111760000D03*
D19*
X61920000Y-132715000D03*
D16*
X58420000Y-132715000D03*
D12*
X50800000Y-56515000D03*
D11*
X50800000Y-59055000D03*
X50800000Y-61595000D03*
X50800000Y-64135000D03*
D17*
X65405000Y-58132500D03*
D10*
G36*
X66155000Y-57582500D02*
G01*
X66155000Y-58132500D01*
X66154398Y-58132500D01*
X66154398Y-58157034D01*
X66149588Y-58205865D01*
X66140016Y-58253990D01*
X66125772Y-58300945D01*
X66106995Y-58346278D01*
X66083864Y-58389551D01*
X66056604Y-58430350D01*
X66025476Y-58468279D01*
X65990779Y-58502976D01*
X65952850Y-58534104D01*
X65912051Y-58561364D01*
X65868778Y-58584495D01*
X65823445Y-58603272D01*
X65776490Y-58617516D01*
X65728365Y-58627088D01*
X65679534Y-58631898D01*
X65655000Y-58631898D01*
X65655000Y-58632500D01*
X65155000Y-58632500D01*
X65155000Y-58631898D01*
X65130466Y-58631898D01*
X65081635Y-58627088D01*
X65033510Y-58617516D01*
X64986555Y-58603272D01*
X64941222Y-58584495D01*
X64897949Y-58561364D01*
X64857150Y-58534104D01*
X64819221Y-58502976D01*
X64784524Y-58468279D01*
X64753396Y-58430350D01*
X64726136Y-58389551D01*
X64703005Y-58346278D01*
X64684228Y-58300945D01*
X64669984Y-58253990D01*
X64660412Y-58205865D01*
X64655602Y-58157034D01*
X64655602Y-58132500D01*
X64655000Y-58132500D01*
X64655000Y-57582500D01*
X66155000Y-57582500D01*
X66155000Y-57582500D01*
G37*
D18*
X65405000Y-56832500D03*
D17*
X65405000Y-55532500D03*
D10*
G36*
X64655602Y-55532500D02*
G01*
X64655602Y-55507966D01*
X64660412Y-55459135D01*
X64669984Y-55411010D01*
X64684228Y-55364055D01*
X64703005Y-55318722D01*
X64726136Y-55275449D01*
X64753396Y-55234650D01*
X64784524Y-55196721D01*
X64819221Y-55162024D01*
X64857150Y-55130896D01*
X64897949Y-55103636D01*
X64941222Y-55080505D01*
X64986555Y-55061728D01*
X65033510Y-55047484D01*
X65081635Y-55037912D01*
X65130466Y-55033102D01*
X65155000Y-55033102D01*
X65155000Y-55032500D01*
X65655000Y-55032500D01*
X65655000Y-55033102D01*
X65679534Y-55033102D01*
X65728365Y-55037912D01*
X65776490Y-55047484D01*
X65823445Y-55061728D01*
X65868778Y-55080505D01*
X65912051Y-55103636D01*
X65952850Y-55130896D01*
X65990779Y-55162024D01*
X66025476Y-55196721D01*
X66056604Y-55234650D01*
X66083864Y-55275449D01*
X66106995Y-55318722D01*
X66125772Y-55364055D01*
X66140016Y-55411010D01*
X66149588Y-55459135D01*
X66154398Y-55507966D01*
X66154398Y-55532500D01*
X66155000Y-55532500D01*
X66155000Y-56082500D01*
X64655000Y-56082500D01*
X64655000Y-55532500D01*
X64655602Y-55532500D01*
X64655602Y-55532500D01*
G37*
D17*
X65722500Y-59660000D03*
D10*
G36*
X64972500Y-60210000D02*
G01*
X64972500Y-59660000D01*
X64973102Y-59660000D01*
X64973102Y-59635466D01*
X64977912Y-59586635D01*
X64987484Y-59538510D01*
X65001728Y-59491555D01*
X65020505Y-59446222D01*
X65043636Y-59402949D01*
X65070896Y-59362150D01*
X65102024Y-59324221D01*
X65136721Y-59289524D01*
X65174650Y-59258396D01*
X65215449Y-59231136D01*
X65258722Y-59208005D01*
X65304055Y-59189228D01*
X65351010Y-59174984D01*
X65399135Y-59165412D01*
X65447966Y-59160602D01*
X65472500Y-59160602D01*
X65472500Y-59160000D01*
X65972500Y-59160000D01*
X65972500Y-59160602D01*
X65997034Y-59160602D01*
X66045865Y-59165412D01*
X66093990Y-59174984D01*
X66140945Y-59189228D01*
X66186278Y-59208005D01*
X66229551Y-59231136D01*
X66270350Y-59258396D01*
X66308279Y-59289524D01*
X66342976Y-59324221D01*
X66374104Y-59362150D01*
X66401364Y-59402949D01*
X66424495Y-59446222D01*
X66443272Y-59491555D01*
X66457516Y-59538510D01*
X66467088Y-59586635D01*
X66471898Y-59635466D01*
X66471898Y-59660000D01*
X66472500Y-59660000D01*
X66472500Y-60210000D01*
X64972500Y-60210000D01*
X64972500Y-60210000D01*
G37*
D18*
X65722500Y-60960000D03*
D17*
X65722500Y-62260000D03*
D10*
G36*
X66471898Y-62260000D02*
G01*
X66471898Y-62284534D01*
X66467088Y-62333365D01*
X66457516Y-62381490D01*
X66443272Y-62428445D01*
X66424495Y-62473778D01*
X66401364Y-62517051D01*
X66374104Y-62557850D01*
X66342976Y-62595779D01*
X66308279Y-62630476D01*
X66270350Y-62661604D01*
X66229551Y-62688864D01*
X66186278Y-62711995D01*
X66140945Y-62730772D01*
X66093990Y-62745016D01*
X66045865Y-62754588D01*
X65997034Y-62759398D01*
X65972500Y-62759398D01*
X65972500Y-62760000D01*
X65472500Y-62760000D01*
X65472500Y-62759398D01*
X65447966Y-62759398D01*
X65399135Y-62754588D01*
X65351010Y-62745016D01*
X65304055Y-62730772D01*
X65258722Y-62711995D01*
X65215449Y-62688864D01*
X65174650Y-62661604D01*
X65136721Y-62630476D01*
X65102024Y-62595779D01*
X65070896Y-62557850D01*
X65043636Y-62517051D01*
X65020505Y-62473778D01*
X65001728Y-62428445D01*
X64987484Y-62381490D01*
X64977912Y-62333365D01*
X64973102Y-62284534D01*
X64973102Y-62260000D01*
X64972500Y-62260000D01*
X64972500Y-61710000D01*
X66472500Y-61710000D01*
X66472500Y-62260000D01*
X66471898Y-62260000D01*
X66471898Y-62260000D01*
G37*
D11*
X67310000Y-71755000D03*
X67310000Y-74295000D03*
D12*
X67310000Y-76835000D03*
D19*
X71397500Y-134937500D03*
X68897500Y-134937500D03*
D16*
X51117500Y-72390000D03*
D19*
X51117500Y-75890000D03*
D20*
X92075000Y-56832500D03*
X92075000Y-54292500D03*
D21*
X92075000Y-51752500D03*
D15*
X90360500Y-69405500D03*
D19*
X90360500Y-61785500D03*
D15*
X104457500Y-136842500D03*
D19*
X112077500Y-136842500D03*
D15*
X100647500Y-135255000D03*
D19*
X100647500Y-127635000D03*
D15*
X75247500Y-139700000D03*
D19*
X75247500Y-132080000D03*
D15*
X61912500Y-138747500D03*
D19*
X54292500Y-138747500D03*
D22*
X96456500Y-66357500D03*
D23*
X93916500Y-66357500D03*
X95186500Y-66357500D03*
D22*
X66992500Y-139382500D03*
D23*
X64452500Y-139382500D03*
X65722500Y-139382500D03*
D11*
X93916500Y-62293500D03*
D12*
X96456500Y-62293500D03*
D11*
X101917500Y-139700000D03*
X104457500Y-139700000D03*
X106997500Y-139700000D03*
D12*
X109537500Y-139700000D03*
D24*
X79057500Y-52705000D03*
D25*
X73977500Y-52705000D03*
D26*
X74890000Y-58172500D03*
X85090000Y-59372500D03*
D19*
X82542500Y-65087500D03*
D16*
X86042500Y-65087500D03*
D19*
X86042500Y-54252500D03*
X86042500Y-51752500D03*
X77160000Y-65087500D03*
D16*
X73660000Y-65087500D03*
D27*
X95567500Y-126047500D03*
X113982500Y-133985000D03*
X113982500Y-125095000D03*
X113030000Y-95250000D03*
X113030000Y-133667500D03*
X112077500Y-65405000D03*
X105727506Y-95279994D03*
X105727501Y-124489999D03*
X105727472Y-66070028D03*
X99377500Y-117157500D03*
X65405000Y-93980000D03*
X65405000Y-123190000D03*
X106045000Y-119380000D03*
X106045000Y-90170000D03*
X106045000Y-60960000D03*
X60325000Y-97790000D03*
X111125000Y-115570000D03*
X111125000Y-86360000D03*
X111125000Y-57150000D03*
X62423394Y-128711606D03*
X70802500Y-76835000D03*
X67310000Y-76835000D03*
X65722493Y-62260007D03*
X108267500Y-133032500D03*
X60325000Y-68580000D03*
X95567488Y-124777500D03*
X56515000Y-100965000D03*
X114935000Y-112395000D03*
X114935000Y-83185000D03*
X114935000Y-56515000D03*
X63182500Y-92710000D03*
X63182500Y-121920000D03*
X108267500Y-120650000D03*
X108267500Y-91440000D03*
X108267500Y-62230000D03*
X62230000Y-95250000D03*
X62230000Y-124460000D03*
X109220000Y-118110000D03*
X109220000Y-88900000D03*
X109220000Y-59690000D03*
X61277500Y-87630000D03*
X110172500Y-125730000D03*
X110172500Y-96520000D03*
X110172500Y-67310000D03*
X57467500Y-107315000D03*
X65405000Y-116552500D03*
X58420000Y-89217500D03*
X56515000Y-78104980D03*
X97472500Y-135255000D03*
X63182500Y-66675000D03*
X97224279Y-122872496D03*
X62230000Y-67627500D03*
X109220000Y-100330000D03*
X98425000Y-121602500D03*
X61277500Y-61912488D03*
X61277500Y-110807492D03*
X61277500Y-99377500D03*
X91757492Y-124777500D03*
X77152500Y-128587500D03*
X71755000Y-109220000D03*
X90487500Y-119380006D03*
X89487487Y-120332536D03*
X88265000Y-120967500D03*
X100330000Y-124777500D03*
X106045000Y-127317500D03*
X91757500Y-69831998D03*
X57467500Y-121920000D03*
X65722503Y-88869997D03*
X65405000Y-118367500D03*
X61277500Y-120650000D03*
X59372500Y-66040000D03*
X65722496Y-59660004D03*
X78400672Y-128587500D03*
X112077500Y-131444990D03*
X98107500Y-126999988D03*
D28*
X113982500Y-125095000D02*
X113982500Y-133985000D01*
X113030000Y-95250000D02*
X113030000Y-133667500D01*
D29*
X105787500Y-66040000D02*
X106045000Y-65782500D01*
X106045000Y-65782500D02*
X106015000Y-65782500D01*
X106015000Y-65782500D02*
X105727472Y-66070028D01*
D28*
X65405000Y-91757500D02*
X65405000Y-93980000D01*
X65405000Y-120967500D02*
X65405000Y-123190000D01*
X106045000Y-121602500D02*
X106045000Y-119380000D01*
X106045000Y-92392500D02*
X106045000Y-90170000D01*
X106045000Y-63182500D02*
X106045000Y-60960000D01*
X111125000Y-115570000D02*
X111125000Y-105410000D01*
X111125000Y-105410000D02*
X111125000Y-86360000D01*
X60325000Y-126613213D02*
X60325000Y-126047528D01*
X60325000Y-97790000D02*
X60325000Y-126047528D01*
X62423394Y-128711606D02*
X60325000Y-126613213D01*
D30*
X48260000Y-72390000D02*
X48260000Y-78740000D01*
X48260000Y-101600000D02*
X48260000Y-78740000D01*
X51117500Y-72390000D02*
X48260000Y-72390000D01*
X54547490Y-66102510D02*
X54547490Y-66040000D01*
D28*
X73342500Y-79375000D02*
X70802500Y-76835000D01*
X73660000Y-79375000D02*
X73342500Y-79375000D01*
X65435000Y-62547500D02*
X65722493Y-62260007D01*
X65405000Y-62547500D02*
X65435000Y-62547500D01*
X101849581Y-94615000D02*
X102552500Y-93912081D01*
X100647500Y-94615000D02*
X101849581Y-94615000D01*
D29*
X104879908Y-92680000D02*
X105727500Y-92680000D01*
X104869907Y-92690001D02*
X104879908Y-92680000D01*
X103579997Y-92690001D02*
X104869907Y-92690001D01*
X102552500Y-93717498D02*
X103579997Y-92690001D01*
X102552500Y-93912081D02*
X102552500Y-93717498D01*
D28*
X106997500Y-136207500D02*
X106997500Y-139700000D01*
X95567500Y-126047500D02*
X102235000Y-132715000D01*
X104120998Y-135255000D02*
X106045000Y-135255000D01*
X102235000Y-133369002D02*
X104120998Y-135255000D01*
X102235000Y-132715000D02*
X102235000Y-133369002D01*
X106203750Y-135096250D02*
X108267500Y-133032500D01*
X106203750Y-135413750D02*
X106203750Y-135096250D01*
X106045000Y-135255000D02*
X106203750Y-135413750D01*
X106203750Y-135413750D02*
X106997500Y-136207500D01*
D30*
X73660000Y-79375000D02*
X96520000Y-79375000D01*
D28*
X60325000Y-97790000D02*
X60325000Y-68580000D01*
X95167489Y-125177499D02*
X95567488Y-124777500D01*
X92709988Y-127635000D02*
X95167489Y-125177499D01*
X68512081Y-127000000D02*
X69147081Y-127635000D01*
X67310000Y-127000000D02*
X68512081Y-127000000D01*
X69147081Y-127635000D02*
X92709988Y-127635000D01*
X73660000Y-139700000D02*
X74930000Y-139700000D01*
X68897500Y-134937500D02*
X73660000Y-139700000D01*
X111125000Y-76200000D02*
X111125000Y-57150000D01*
X113030000Y-78105000D02*
X111125000Y-76200000D01*
X113030000Y-84455000D02*
X113030000Y-78105000D01*
X111125000Y-86360000D02*
X113030000Y-84455000D01*
X67700000Y-139382500D02*
X66992500Y-139382500D01*
X68897500Y-138185000D02*
X67700000Y-139382500D01*
X68897500Y-134937500D02*
X68897500Y-138185000D01*
X69850000Y-78740000D02*
X69850000Y-53340000D01*
X69850000Y-53340000D02*
X67310000Y-50800000D01*
X71755000Y-80645000D02*
X69850000Y-78740000D01*
X71755000Y-82550000D02*
X71755000Y-80645000D01*
X73660000Y-84455000D02*
X71755000Y-82550000D01*
D30*
X51117500Y-101600000D02*
X48260000Y-101600000D01*
X54547490Y-97852510D02*
X54547490Y-97790000D01*
X51117500Y-101282500D02*
X54547490Y-97852510D01*
X51117500Y-101600000D02*
X51117500Y-101282500D01*
X54547490Y-127062510D02*
X54547490Y-127000000D01*
X123190000Y-111760000D02*
X123190000Y-105410000D01*
X120332500Y-111760000D02*
X123190000Y-111760000D01*
X116902510Y-115507490D02*
X116902510Y-115570000D01*
X120332500Y-112077500D02*
X116902510Y-115507490D01*
X120332500Y-111760000D02*
X120332500Y-112077500D01*
X123190000Y-82550000D02*
X123190000Y-105410000D01*
X120332500Y-82550000D02*
X123190000Y-82550000D01*
X116902510Y-86297490D02*
X116902510Y-86360000D01*
X120332500Y-82867500D02*
X116902510Y-86297490D01*
X120332500Y-82550000D02*
X120332500Y-82867500D01*
X116902510Y-57087490D02*
X116902510Y-57150000D01*
X85090000Y-57951216D02*
X83502500Y-56363716D01*
X85090000Y-59372500D02*
X85090000Y-57951216D01*
X83502500Y-53161130D02*
X84911130Y-51752500D01*
X84911130Y-51752500D02*
X86042500Y-51752500D01*
X83502500Y-56363716D02*
X83502500Y-53161130D01*
X92075000Y-51752500D02*
X86042500Y-51752500D01*
X73660000Y-65087500D02*
X73660000Y-64452500D01*
X78740000Y-59372500D02*
X85090000Y-59372500D01*
X73660000Y-64452500D02*
X78740000Y-59372500D01*
D28*
X92075000Y-51752500D02*
X92575000Y-51752500D01*
X93916500Y-59436000D02*
X93980000Y-59372500D01*
X93916500Y-62293500D02*
X93916500Y-59436000D01*
D30*
X93980000Y-59372500D02*
X85090000Y-59372500D01*
D28*
X54610000Y-82550000D02*
X55880000Y-82550000D01*
X55880000Y-82550000D02*
X56515000Y-82550000D01*
X56515000Y-82550000D02*
X56515000Y-82867500D01*
X56515000Y-100965000D02*
X56515000Y-107950000D01*
X56515000Y-82867500D02*
X56515000Y-100965000D01*
X54610000Y-111760000D02*
X55880000Y-111760000D01*
X55880000Y-111760000D02*
X56515000Y-111760000D01*
X56515000Y-107950000D02*
X56515000Y-111760000D01*
X116840000Y-130810000D02*
X115570000Y-130810000D01*
X115570000Y-130810000D02*
X114935000Y-130810000D01*
X114935000Y-130810000D02*
X114935000Y-130492500D01*
X114935000Y-112395000D02*
X114935000Y-105410000D01*
X114935000Y-130492500D02*
X114935000Y-112395000D01*
X116840000Y-101600000D02*
X115570000Y-101600000D01*
X115570000Y-101600000D02*
X114935000Y-101600000D01*
X114935000Y-101600000D02*
X114935000Y-101282500D01*
X114935000Y-105410000D02*
X114935000Y-101600000D01*
X114935000Y-83185000D02*
X114935000Y-76200000D01*
X114935000Y-101282500D02*
X114935000Y-83185000D01*
X116840000Y-72390000D02*
X115570000Y-72390000D01*
X115570000Y-72390000D02*
X114935000Y-72390000D01*
X114935000Y-76200000D02*
X114935000Y-72390000D01*
X114935000Y-72390000D02*
X114935000Y-56515000D01*
D30*
X79135000Y-74295000D02*
X86042500Y-67387500D01*
X73660000Y-74295000D02*
X79135000Y-74295000D01*
X86042500Y-67387500D02*
X86042500Y-65087500D01*
X92659998Y-74295000D02*
X86042500Y-67677502D01*
X96520000Y-74295000D02*
X92659998Y-74295000D01*
D28*
X63182500Y-92710000D02*
X63182500Y-107950000D01*
X63182500Y-107950000D02*
X63182500Y-121920000D01*
X108267500Y-120650000D02*
X108267500Y-105410000D01*
X108267500Y-105410000D02*
X108267500Y-91440000D01*
X62230000Y-95250000D02*
X62230000Y-107950000D01*
X62230000Y-107950000D02*
X62230000Y-124460000D01*
X109220000Y-118110000D02*
X109220000Y-105410000D01*
X110172500Y-125730000D02*
X110172500Y-105410000D01*
X110172500Y-105410000D02*
X110172500Y-96520000D01*
X57467500Y-58102500D02*
X57467500Y-107315000D01*
X58737500Y-56832500D02*
X57467500Y-58102500D01*
X65405000Y-56832500D02*
X58737500Y-56832500D01*
D30*
X73977500Y-57260000D02*
X74890000Y-58172500D01*
X73977500Y-52070000D02*
X73977500Y-57260000D01*
D28*
X96456500Y-62293500D02*
X96456500Y-66357500D01*
X64135000Y-59055000D02*
X64135000Y-71120000D01*
X64135000Y-71120000D02*
X67310000Y-74295000D01*
X65057500Y-58132500D02*
X64135000Y-59055000D01*
X65405000Y-55592500D02*
X65057500Y-55592500D01*
X95186500Y-65341500D02*
X93916500Y-64071500D01*
X92646500Y-64071500D02*
X90360500Y-61785500D01*
X93916500Y-64071500D02*
X92646500Y-64071500D01*
X95186500Y-66357500D02*
X95186500Y-65341500D01*
D29*
X65405000Y-86042500D02*
X65722500Y-86360000D01*
X65405000Y-115252500D02*
X65722500Y-115570000D01*
X65722500Y-115570000D02*
X68580000Y-115570000D01*
X106045000Y-127317500D02*
X105727500Y-127000000D01*
X106045000Y-98107500D02*
X105727500Y-97790000D01*
X106045000Y-68897500D02*
X105727500Y-68580000D01*
X105037502Y-68897500D02*
X106045000Y-68897500D01*
X104720002Y-68580000D02*
X105037502Y-68897500D01*
X102870000Y-68580000D02*
X104720002Y-68580000D01*
D28*
X66962500Y-84742500D02*
X67310000Y-85090000D01*
X65405000Y-84742500D02*
X66962500Y-84742500D01*
X67022500Y-90457500D02*
X67310000Y-90170000D01*
X65405000Y-90457500D02*
X67022500Y-90457500D01*
D30*
X54610000Y-92710000D02*
X50800000Y-92710000D01*
X54610000Y-90170000D02*
X50800000Y-90170000D01*
X54610000Y-87630000D02*
X50800000Y-87630000D01*
X54610000Y-85090000D02*
X50800000Y-85090000D01*
D28*
X66962500Y-113952500D02*
X67310000Y-114300000D01*
X65405000Y-113952500D02*
X66962500Y-113952500D01*
X67022500Y-119667500D02*
X67310000Y-119380000D01*
X65405000Y-119667500D02*
X67022500Y-119667500D01*
D30*
X54610000Y-121920000D02*
X50800000Y-121920000D01*
X54610000Y-119380000D02*
X50800000Y-119380000D01*
X54610000Y-116840000D02*
X50800000Y-116840000D01*
X54610000Y-114300000D02*
X50800000Y-114300000D01*
D28*
X104487500Y-128617500D02*
X104140000Y-128270000D01*
X106045000Y-128617500D02*
X104487500Y-128617500D01*
X104427500Y-122902500D02*
X104140000Y-123190000D01*
X106045000Y-122902500D02*
X104427500Y-122902500D01*
D30*
X116840000Y-120650000D02*
X120650000Y-120650000D01*
X116840000Y-123190000D02*
X120650000Y-123190000D01*
X116840000Y-125730000D02*
X120650000Y-125730000D01*
X116840000Y-128270000D02*
X120650000Y-128270000D01*
D28*
X104487500Y-99407500D02*
X104140000Y-99060000D01*
X106045000Y-99407500D02*
X104487500Y-99407500D01*
X104427500Y-93692500D02*
X104140000Y-93980000D01*
X106045000Y-93692500D02*
X104427500Y-93692500D01*
D30*
X116840000Y-91440000D02*
X120650000Y-91440000D01*
X116840000Y-93980000D02*
X120650000Y-93980000D01*
X116840000Y-96520000D02*
X120650000Y-96520000D01*
X116840000Y-99060000D02*
X120650000Y-99060000D01*
D28*
X104487500Y-70197500D02*
X104140000Y-69850000D01*
X106045000Y-70197500D02*
X104487500Y-70197500D01*
X104427500Y-64482500D02*
X104140000Y-64770000D01*
X106045000Y-64482500D02*
X104427500Y-64482500D01*
D30*
X116840000Y-62230000D02*
X120650000Y-62230000D01*
X116840000Y-64770000D02*
X120650000Y-64770000D01*
X116840000Y-67310000D02*
X120650000Y-67310000D01*
X116840000Y-69850000D02*
X120650000Y-69850000D01*
D28*
X64135000Y-88265000D02*
X64135000Y-100330000D01*
X64135000Y-100330000D02*
X67310000Y-103505000D01*
X65057500Y-87342500D02*
X64135000Y-88265000D01*
X65405000Y-87342500D02*
X65057500Y-87342500D01*
X107315000Y-125095000D02*
X107315000Y-113030000D01*
X107315000Y-113030000D02*
X104140000Y-109855000D01*
X106392500Y-126017500D02*
X107315000Y-125095000D01*
X106045000Y-126017500D02*
X106392500Y-126017500D01*
X66962500Y-52992500D02*
X67310000Y-53340000D01*
X68159999Y-54189999D02*
X67310000Y-53340000D01*
X68897500Y-54927500D02*
X68159999Y-54189999D01*
X73660000Y-86995000D02*
X73342500Y-86995000D01*
X68897500Y-79692500D02*
X68897500Y-54927500D01*
X70802500Y-81597500D02*
X68897500Y-79692500D01*
X70802500Y-84455000D02*
X70802500Y-81597500D01*
X73342500Y-86995000D02*
X70802500Y-84455000D01*
D30*
X51117500Y-72072500D02*
X54610000Y-68580000D01*
X51117500Y-72390000D02*
X51117500Y-72072500D01*
X116840000Y-57150000D02*
X118420000Y-55570000D01*
X96412500Y-50165000D02*
X94825000Y-51752500D01*
X94825000Y-51752500D02*
X92075000Y-51752500D01*
X123190000Y-60325000D02*
X113030000Y-50165000D01*
X113030000Y-50165000D02*
X96412500Y-50165000D01*
X123190000Y-82550000D02*
X123190000Y-60325000D01*
X48260000Y-122872500D02*
X52387500Y-127000000D01*
X52387500Y-127000000D02*
X54610000Y-127000000D01*
X48260000Y-101600000D02*
X48260000Y-122872500D01*
D28*
X58420000Y-134302500D02*
X58420000Y-132715000D01*
X53975000Y-138747500D02*
X58420000Y-134302500D01*
X56515000Y-82550000D02*
X56515000Y-78104980D01*
X54610000Y-53340000D02*
X56515000Y-55245000D01*
X56515000Y-55245000D02*
X56515000Y-77539295D01*
X56515000Y-77539295D02*
X56515000Y-78104980D01*
X83820000Y-132080000D02*
X86360000Y-132080000D01*
X90170000Y-138112500D02*
X94932500Y-138112500D01*
X86360000Y-132080000D02*
X86360000Y-134302500D01*
X86360000Y-134302500D02*
X90170000Y-138112500D01*
X95720001Y-138900001D02*
X96520000Y-139700000D01*
X94932500Y-138112500D02*
X95720001Y-138900001D01*
X96520000Y-81915000D02*
X73660000Y-81915000D01*
X82232500Y-133667500D02*
X83820000Y-132080000D01*
X76517500Y-133667500D02*
X82232500Y-133667500D01*
X74930000Y-132080000D02*
X76517500Y-133667500D01*
X109537500Y-139382500D02*
X112077500Y-136842500D01*
X109537500Y-139700000D02*
X109537500Y-139382500D01*
X112712500Y-136842500D02*
X114935000Y-134620000D01*
X112077500Y-136842500D02*
X112712500Y-136842500D01*
X102235000Y-86042500D02*
X100647500Y-84455000D01*
X102235000Y-90487500D02*
X102235000Y-86042500D01*
X100647500Y-92075000D02*
X102235000Y-90487500D01*
X94932500Y-137795000D02*
X97072501Y-135654999D01*
X94932500Y-138112500D02*
X94932500Y-137795000D01*
X97072501Y-135654999D02*
X97472500Y-135255000D01*
X114935000Y-134620000D02*
X114935000Y-130810000D01*
X51522499Y-128500001D02*
X49744999Y-130277501D01*
X55332499Y-128500001D02*
X51522499Y-128500001D01*
X49744999Y-130277501D02*
X48895000Y-131127500D01*
X56515000Y-127317500D02*
X55332499Y-128500001D01*
X56515000Y-111760000D02*
X56515000Y-127317500D01*
X63182500Y-92710000D02*
X63182500Y-66675000D01*
X96658594Y-122872496D02*
X97224279Y-122872496D01*
X94932504Y-122872496D02*
X96658594Y-122872496D01*
X92075000Y-125730000D02*
X94932504Y-122872496D01*
X71120000Y-125730000D02*
X92075000Y-125730000D01*
X67310000Y-121920000D02*
X71120000Y-125730000D01*
X108267500Y-79692500D02*
X108267500Y-62230000D01*
X107632500Y-85725000D02*
X107632500Y-80327500D01*
X107632500Y-80327500D02*
X108267500Y-79692500D01*
X108267500Y-86360000D02*
X107632500Y-85725000D01*
X108267500Y-91440000D02*
X108267500Y-86360000D01*
X62230000Y-95250000D02*
X62230000Y-67627500D01*
X108585000Y-80645000D02*
X109220000Y-80010000D01*
X108585000Y-85407500D02*
X108585000Y-80645000D01*
X109220000Y-80010000D02*
X109220000Y-59690000D01*
X109220000Y-86042500D02*
X108585000Y-85407500D01*
X109220000Y-88900000D02*
X109220000Y-86042500D01*
X109220000Y-100330000D02*
X109220000Y-88900000D01*
X109220000Y-105410000D02*
X109220000Y-100330000D01*
X98425000Y-123507500D02*
X98425000Y-122168185D01*
X98425000Y-122168185D02*
X98425000Y-121602500D01*
X69532500Y-126682500D02*
X92392500Y-126682500D01*
X98107500Y-123825000D02*
X98425000Y-123507500D01*
X95250000Y-123825000D02*
X98107500Y-123825000D01*
X67310000Y-124460000D02*
X69532500Y-126682500D01*
X92392500Y-126682500D02*
X95250000Y-123825000D01*
X65405000Y-55532500D02*
X66962500Y-55532500D01*
X67022500Y-58707500D02*
X67310000Y-58420000D01*
X61277500Y-62478173D02*
X61277500Y-61912488D01*
X61277500Y-87630000D02*
X61277500Y-62478173D01*
X61277500Y-110807492D02*
X61277500Y-99377500D01*
X61277500Y-87630000D02*
X61277500Y-99377500D01*
X68897500Y-118427500D02*
X68897500Y-122237500D01*
X68897500Y-122237500D02*
X71437500Y-124777500D01*
X91191807Y-124777500D02*
X91757492Y-124777500D01*
X71437500Y-124777500D02*
X91191807Y-124777500D01*
X67310000Y-116840000D02*
X68897500Y-118427500D01*
X109537500Y-80962500D02*
X110172500Y-80327500D01*
X110172500Y-80327500D02*
X110172500Y-76200000D01*
X110172500Y-76200000D02*
X110172500Y-67310000D01*
X110172500Y-96520000D02*
X110172500Y-85725000D01*
X109537500Y-85090000D02*
X109537500Y-80962500D01*
X110172500Y-85725000D02*
X109537500Y-85090000D01*
X101849581Y-102235000D02*
X102552500Y-101532081D01*
X100647500Y-102235000D02*
X101849581Y-102235000D01*
X102552500Y-98107500D02*
X104140000Y-96520000D01*
X102552500Y-101532081D02*
X102552500Y-98107500D01*
X104457500Y-136842500D02*
X104457500Y-139700000D01*
X102870000Y-141287500D02*
X104457500Y-139700000D01*
X100012500Y-141287500D02*
X102870000Y-141287500D01*
X98425000Y-139700000D02*
X100012500Y-141287500D01*
X96602495Y-129622495D02*
X98425000Y-131445000D01*
X78187495Y-129622495D02*
X96602495Y-129622495D01*
X98425000Y-131445000D02*
X98425000Y-139700000D01*
X77152500Y-128587500D02*
X78187495Y-129622495D01*
X96520000Y-114935000D02*
X89535000Y-121920000D01*
X71755000Y-109785685D02*
X71755000Y-109220000D01*
X89535000Y-121920000D02*
X72390000Y-121920000D01*
X72390000Y-121920000D02*
X71755000Y-121285000D01*
X71755000Y-121285000D02*
X71755000Y-109785685D01*
X90487500Y-118814321D02*
X90487500Y-119380006D01*
X73660000Y-94615000D02*
X90487500Y-111442500D01*
X90487500Y-111442500D02*
X90487500Y-118814321D01*
X89487487Y-119766851D02*
X89487487Y-120332536D01*
X73660000Y-97155000D02*
X89487487Y-112982487D01*
X89487487Y-112982487D02*
X89487487Y-119766851D01*
X88265000Y-120401815D02*
X88265000Y-120967500D01*
X73660000Y-99695000D02*
X88265000Y-114300000D01*
X88265000Y-114300000D02*
X88265000Y-120401815D01*
X62865000Y-137795000D02*
X65385000Y-137795000D01*
X61912500Y-138747500D02*
X62865000Y-137795000D01*
X65722500Y-138132500D02*
X65722500Y-139382500D01*
X65385000Y-137795000D02*
X65722500Y-138132500D01*
X68897500Y-84137500D02*
X67310000Y-82550000D01*
X68897500Y-85090000D02*
X68897500Y-84137500D01*
X70485000Y-88900000D02*
X70485000Y-86677500D01*
X70485000Y-86677500D02*
X68897500Y-85090000D01*
X73660000Y-92075000D02*
X70485000Y-88900000D01*
X69532500Y-82232500D02*
X67310000Y-80010000D01*
X73660000Y-89535000D02*
X71437500Y-87312500D01*
X69850000Y-82550000D02*
X69532500Y-82232500D01*
X69850000Y-84772500D02*
X69850000Y-82550000D01*
X71437500Y-86360000D02*
X69850000Y-84772500D01*
X71437500Y-87312500D02*
X71437500Y-86360000D01*
X98107500Y-90487500D02*
X98107500Y-78422500D01*
X98107500Y-78422500D02*
X104140000Y-72390000D01*
X96520000Y-92075000D02*
X98107500Y-90487500D01*
X99060000Y-92075000D02*
X96520000Y-94615000D01*
X99060000Y-80010000D02*
X99060000Y-92075000D01*
X104140000Y-74930000D02*
X99060000Y-80010000D01*
D29*
X66288202Y-86360000D02*
X67945000Y-86360000D01*
X65970702Y-86042500D02*
X66288202Y-86360000D01*
X65405000Y-86042500D02*
X65970702Y-86042500D01*
D28*
X68897500Y-87312500D02*
X67945000Y-86360000D01*
X68897500Y-88582500D02*
X68897500Y-87312500D01*
X70802500Y-90487500D02*
X68897500Y-88582500D01*
X72072500Y-122872500D02*
X70802500Y-121602500D01*
X70802500Y-121602500D02*
X70802500Y-90487500D01*
X91122500Y-122872500D02*
X72072500Y-122872500D01*
X96520000Y-117475000D02*
X91122500Y-122872500D01*
X92710000Y-123825000D02*
X96520000Y-120015000D01*
X71755000Y-123825000D02*
X92710000Y-123825000D01*
X69850000Y-121920000D02*
X71755000Y-123825000D01*
X69850000Y-116840000D02*
X69850000Y-121920000D01*
X68580000Y-115570000D02*
X69850000Y-116840000D01*
X100330000Y-116205000D02*
X100330000Y-124777500D01*
X96520000Y-112395000D02*
X100330000Y-116205000D01*
D29*
X106045000Y-98107500D02*
X105707501Y-97770001D01*
D28*
X106681412Y-98107500D02*
X106045000Y-98107500D01*
X107315000Y-98127500D02*
X107295000Y-98107500D01*
X107315000Y-100647500D02*
X107315000Y-98127500D01*
X96520000Y-105092500D02*
X98742500Y-107315000D01*
X106045000Y-101917500D02*
X107315000Y-100647500D01*
X106045000Y-105410000D02*
X106045000Y-101917500D01*
X107295000Y-98107500D02*
X106045000Y-98107500D01*
X105727500Y-105727500D02*
X106045000Y-105410000D01*
X103217498Y-105727500D02*
X105727500Y-105727500D01*
X102235000Y-106680000D02*
X102264998Y-106680000D01*
X101600000Y-107315000D02*
X102235000Y-106680000D01*
X102264998Y-106680000D02*
X103217498Y-105727500D01*
X98742500Y-107315000D02*
X101600000Y-107315000D01*
X96520000Y-104775000D02*
X96520000Y-105092500D01*
X93009498Y-68580000D02*
X102870000Y-68580000D01*
X91757500Y-69831998D02*
X93009498Y-68580000D01*
X103290001Y-102449999D02*
X104140000Y-101600000D01*
X102235000Y-103505000D02*
X103290001Y-102449999D01*
X101292001Y-103505000D02*
X102235000Y-103505000D01*
X99060000Y-102552500D02*
X100012500Y-103505000D01*
X99060000Y-99695000D02*
X99060000Y-102552500D01*
X96520000Y-97155000D02*
X99060000Y-99695000D01*
D29*
X100012500Y-103505000D02*
X101292001Y-103505000D01*
D28*
X101282500Y-106362500D02*
X103505000Y-104140000D01*
X100012500Y-106362500D02*
X101282500Y-106362500D01*
X98107500Y-104457500D02*
X100012500Y-106362500D01*
X103505000Y-104140000D02*
X104140000Y-104140000D01*
X98107500Y-101282500D02*
X98107500Y-104457500D01*
X96520000Y-99695000D02*
X98107500Y-101282500D01*
X102235000Y-128905000D02*
X104140000Y-130810000D01*
X102235000Y-113030000D02*
X102235000Y-128905000D01*
X96520000Y-107315000D02*
X102235000Y-113030000D01*
X101282500Y-125095000D02*
X101282500Y-114617500D01*
X99377500Y-128587500D02*
X99377500Y-127000000D01*
X101282500Y-114617500D02*
X96520000Y-109855000D01*
X99377500Y-127000000D02*
X101282500Y-125095000D01*
X104140000Y-133350000D02*
X99377500Y-128587500D01*
D30*
X53975000Y-64135000D02*
X54610000Y-63500000D01*
X50800000Y-64135000D02*
X53975000Y-64135000D01*
X53975000Y-56515000D02*
X54610000Y-55880000D01*
X50800000Y-56515000D02*
X53975000Y-56515000D01*
D28*
X57467500Y-127635000D02*
X57467500Y-123190000D01*
X55562500Y-129540000D02*
X57467500Y-127635000D01*
X53022500Y-129540000D02*
X55562500Y-129540000D01*
X57467500Y-123190000D02*
X57467500Y-121920000D01*
X51435000Y-131127500D02*
X53022500Y-129540000D01*
X106045000Y-82550000D02*
X104140000Y-80645000D01*
X106045000Y-88265000D02*
X106045000Y-82550000D01*
X107315000Y-89535000D02*
X106045000Y-88265000D01*
X107315000Y-95885000D02*
X107315000Y-89535000D01*
X106392500Y-96807500D02*
X107315000Y-95885000D01*
X106045000Y-96807500D02*
X106392500Y-96807500D01*
X107315000Y-66327500D02*
X106045000Y-67597500D01*
X107315000Y-55177081D02*
X107315000Y-66327500D01*
X106680000Y-54542081D02*
X107315000Y-55177081D01*
X106680000Y-53340000D02*
X106680000Y-54542081D01*
X78105000Y-139700000D02*
X78740000Y-139700000D01*
X71120000Y-132715000D02*
X78105000Y-139700000D01*
X61582268Y-130810000D02*
X69215000Y-130810000D01*
X58420000Y-127647732D02*
X61582268Y-130810000D01*
X69215000Y-130810000D02*
X71120000Y-132715000D01*
X58420000Y-89217500D02*
X58420000Y-127647732D01*
X64452500Y-128905000D02*
X69850000Y-128905000D01*
X61277500Y-125730000D02*
X64452500Y-128905000D01*
X69850000Y-128905000D02*
X78105000Y-137160000D01*
X61277500Y-120650000D02*
X61277500Y-125730000D01*
X81280000Y-137160000D02*
X83820000Y-139700000D01*
X78105000Y-137160000D02*
X81280000Y-137160000D01*
X61924498Y-129857500D02*
X69532500Y-129857500D01*
X59372500Y-127305502D02*
X61924498Y-129857500D01*
X69532500Y-129857500D02*
X77787500Y-138112500D01*
X59372500Y-66040000D02*
X59372500Y-127305502D01*
X79692500Y-138112500D02*
X81280000Y-139700000D01*
X77787500Y-138112500D02*
X79692500Y-138112500D01*
X65405000Y-61247500D02*
X67022500Y-61247500D01*
D30*
X53975000Y-61595000D02*
X54610000Y-60960000D01*
X50800000Y-61595000D02*
X53975000Y-61595000D01*
X53975000Y-59055000D02*
X54610000Y-58420000D01*
X50800000Y-59055000D02*
X53975000Y-59055000D01*
D28*
X95885000Y-84455000D02*
X96520000Y-84455000D01*
X93345000Y-86995000D02*
X95885000Y-84455000D01*
X100647500Y-138112500D02*
X101917500Y-139382500D01*
X100647500Y-135255000D02*
X100647500Y-138112500D01*
X100647500Y-132397500D02*
X100647500Y-135255000D01*
X96837500Y-128587500D02*
X100647500Y-132397500D01*
X78400672Y-128587500D02*
X96837500Y-128587500D01*
X112077500Y-87153750D02*
X112077500Y-130879305D01*
X112077500Y-65405000D02*
X113982500Y-67310000D01*
X113982500Y-67310000D02*
X113982500Y-85248750D01*
X112077500Y-130879305D02*
X112077500Y-131444990D01*
X113982500Y-85248750D02*
X112077500Y-87153750D01*
X99377500Y-117157500D02*
X99377500Y-125729988D01*
X98507499Y-126599989D02*
X98107500Y-126999988D01*
X99377500Y-125729988D02*
X98507499Y-126599989D01*
M02*
