M48
; DRILL file {KiCad (5.1.2-1)-1} date 2019 August 26, Monday 15:35:51
; FORMAT={-:-/ absolute / inch / decimal}
; #@! TF.CreationDate,2019-08-26T15:35:51+02:00
; #@! TF.GenerationSoftware,Kicad,Pcbnew,(5.1.2-1)-1
; #@! TF.FileFunction,Plated,1,2,PTH
FMAT,2
INCH
T1C0.0157
T2C0.0295
T3C0.0315
T4C0.0394
T5C0.0398
T6C0.0400
T7C0.0433
%
G90
G05
T1
X2.225Y-3.075
X2.225Y-3.975
X2.2625Y-4.225
X2.2625Y-4.8
X2.3Y-3.5125
X2.3375Y-2.6
X2.375Y-2.7
X2.375Y-3.85
X2.4125Y-2.4375
X2.4125Y-3.45
X2.4125Y-3.9125
X2.4125Y-4.3625
X2.4125Y-4.75
X2.45Y-2.6625
X2.45Y-3.75
X2.45Y-4.9
X2.4576Y-5.0674
X2.4875Y-2.625
X2.4875Y-3.65
X2.4875Y-4.8
X2.575Y-3.7
X2.575Y-4.5887
X2.575Y-4.6601
X2.575Y-4.85
X2.5875Y-2.4512
X2.5875Y-2.3488
X2.5875Y-3.4988
X2.65Y-3.025
X2.7875Y-3.025
X2.825Y-4.3
X3.0375Y-5.0625
X3.0866Y-5.0625
X3.475Y-4.7625
X3.5231Y-4.7375
X3.5625Y-4.7
X3.6125Y-4.9125
X3.6125Y-2.7493
X3.7625Y-4.9125
X3.7625Y-4.9625
X3.8277Y-4.8375
X3.8375Y-5.325
X3.8625Y-5.0
X3.875Y-4.7875
X3.9125Y-4.6125
X3.95Y-4.9125
X4.1625Y-2.6012
X4.1625Y-4.9012
X4.1625Y-3.7512
X4.175Y-2.4
X4.175Y-3.55
X4.175Y-4.7
X4.175Y-5.0125
X4.2625Y-2.45
X4.2625Y-3.6
X4.2625Y-4.75
X4.2625Y-5.2375
X4.3Y-2.35
X4.3Y-3.5
X4.3Y-3.95
X4.3Y-4.65
X4.3375Y-2.65
X4.3375Y-3.8
X4.3375Y-4.95
X4.375Y-2.25
X4.375Y-3.4
X4.375Y-4.55
X4.4125Y-2.575
X4.4125Y-5.175
X4.45Y-3.75
X4.45Y-5.2625
X4.4875Y-4.925
X4.4875Y-5.275
X4.525Y-2.225
X4.525Y-3.275
X4.525Y-4.425
T2
X3.6975Y-2.6125
X3.7475Y-2.6125
X3.7975Y-2.6125
X2.5375Y-5.4875
X2.5875Y-5.4875
X2.6375Y-5.4875
T3
X4.7375Y-3.1122
X4.7375Y-3.25
X3.2497Y-2.5625
X3.3875Y-2.5625
X4.3875Y-3.1122
X4.3875Y-3.25
X2.0125Y-2.85
X2.0125Y-2.9878
X3.5575Y-2.4325
X3.5575Y-2.7325
X2.9625Y-5.2
X2.9625Y-5.5
X3.1Y-5.2
X3.1Y-5.5
X3.2Y-5.2
X3.2Y-5.5
X3.3Y-5.2
X3.3Y-5.5
X3.4Y-5.2
X3.4Y-5.5
X3.5Y-5.2
X3.5Y-5.5
X3.6Y-5.2
X3.6Y-5.5
X3.7Y-5.2
X3.7Y-5.5
X3.8Y-5.2
X3.8Y-5.5
X2.3Y-5.225
X2.4378Y-5.225
X3.9625Y-5.025
X3.9625Y-5.325
X2.9Y-2.5625
X3.0378Y-2.5625
X3.3875Y-2.0375
X3.3875Y-2.1359
X2.0125Y-4.0
X2.0125Y-4.1378
X2.7125Y-5.3125
X2.8109Y-5.3125
X4.7375Y-4.2622
X4.7375Y-4.4
X2.1375Y-5.4625
X2.4375Y-5.4625
X4.1125Y-5.3875
X4.4125Y-5.3875
T4
X2.0Y-4.5
X2.0Y-4.6
X2.0Y-4.7
X2.0Y-4.8
X4.0125Y-5.5
X4.1125Y-5.5
X4.2125Y-5.5
X4.3125Y-5.5
X2.15Y-2.0
X2.15Y-2.1
X2.15Y-2.2
X2.15Y-2.3
X2.15Y-2.4
X2.15Y-2.5
X2.15Y-2.6
X2.15Y-2.7
X2.65Y-2.0
X2.65Y-2.1
X2.65Y-2.2
X2.65Y-2.3
X2.65Y-2.4
X2.65Y-2.5
X2.65Y-2.6
X2.65Y-2.7
X3.9625Y-3.225
X3.9625Y-3.325
X3.9625Y-3.425
X3.9625Y-3.525
X4.1Y-3.075
X4.1Y-3.175
X4.1Y-3.275
X2.65Y-3.975
X2.65Y-4.075
X2.65Y-4.175
X2.0Y-3.35
X2.0Y-3.45
X2.0Y-3.55
X2.0Y-3.65
X4.1Y-4.55
X4.1Y-4.65
X4.1Y-4.75
X4.1Y-4.85
X4.1Y-4.95
X4.1Y-5.05
X4.1Y-5.15
X4.1Y-5.25
X4.6Y-4.55
X4.6Y-4.65
X4.6Y-4.75
X4.6Y-4.85
X4.6Y-4.95
X4.6Y-5.05
X4.6Y-5.15
X4.6Y-5.25
X4.75Y-4.75
X4.75Y-4.85
X4.75Y-4.95
X4.75Y-5.05
X2.0Y-2.225
X2.0Y-2.325
X2.0Y-2.425
X2.0Y-2.525
X3.9625Y-3.625
X3.9625Y-3.725
X3.9625Y-3.825
X3.9625Y-3.925
X3.9625Y-4.025
X3.9625Y-4.125
X2.15Y-3.15
X2.15Y-3.25
X2.15Y-3.35
X2.15Y-3.45
X2.15Y-3.55
X2.15Y-3.65
X2.15Y-3.75
X2.15Y-3.85
X2.65Y-3.15
X2.65Y-3.25
X2.65Y-3.35
X2.65Y-3.45
X2.65Y-3.55
X2.65Y-3.65
X2.65Y-3.75
X2.65Y-3.85
X4.1Y-3.4
X4.1Y-3.5
X4.1Y-3.6
X4.1Y-3.7
X4.1Y-3.8
X4.1Y-3.9
X4.1Y-4.0
X4.1Y-4.1
X4.6Y-3.4
X4.6Y-3.5
X4.6Y-3.6
X4.6Y-3.7
X4.6Y-3.8
X4.6Y-3.9
X4.6Y-4.0
X4.6Y-4.1
X4.75Y-3.6
X4.75Y-3.7
X4.75Y-3.8
X4.75Y-3.9
X2.65Y-2.825
X2.65Y-2.925
X2.65Y-3.025
X3.6975Y-2.4525
X3.7975Y-2.4525
X1.925Y-5.1625
X2.025Y-5.1625
X2.125Y-5.1625
X4.75Y-2.45
X4.75Y-2.55
X4.75Y-2.65
X4.75Y-2.75
X3.625Y-2.0375
X3.625Y-2.1375
X3.625Y-2.2375
X2.15Y-4.3
X2.15Y-4.4
X2.15Y-4.5
X2.15Y-4.6
X2.15Y-4.7
X2.15Y-4.8
X2.15Y-4.9
X2.15Y-5.0
X2.65Y-4.3
X2.65Y-4.4
X2.65Y-4.5
X2.65Y-4.6
X2.65Y-4.7
X2.65Y-4.8
X2.65Y-4.9
X2.65Y-5.0
X3.675Y-3.425
X4.1Y-2.1
X4.2Y-2.1
X4.3Y-2.1
X4.1Y-2.25
X4.1Y-2.35
X4.1Y-2.45
X4.1Y-2.55
X4.1Y-2.65
X4.1Y-2.75
X4.1Y-2.85
X4.1Y-2.95
X4.6Y-2.25
X4.6Y-2.35
X4.6Y-2.45
X4.6Y-2.55
X4.6Y-2.65
X4.6Y-2.75
X4.6Y-2.85
X4.6Y-2.95
X4.1Y-4.225
X4.1Y-4.325
X4.1Y-4.425
T5
X2.9484Y-2.2903
X3.35Y-2.3375
T6
X2.9Y-2.825
X2.9Y-2.925
X2.9Y-3.025
X2.9Y-3.125
X2.9Y-3.225
X2.9Y-3.325
X2.9Y-3.425
X2.9Y-3.525
X2.9Y-3.625
X2.9Y-3.725
X2.9Y-3.825
X2.9Y-3.925
X2.9Y-4.025
X2.9Y-4.125
X2.9Y-4.225
X2.9Y-4.325
X2.9Y-4.425
X2.9Y-4.525
X2.9Y-4.625
X2.9Y-4.725
X3.8Y-2.825
X3.8Y-2.925
X3.8Y-3.025
X3.8Y-3.125
X3.8Y-3.225
X3.8Y-3.325
X3.8Y-3.425
X3.8Y-3.525
X3.8Y-3.625
X3.8Y-3.725
X3.8Y-3.825
X3.8Y-3.925
X3.8Y-4.025
X3.8Y-4.125
X3.8Y-4.225
X3.8Y-4.325
X3.8Y-4.425
X3.8Y-4.525
X3.8Y-4.625
X3.8Y-4.725
T7
X2.9125Y-2.075
X3.1125Y-2.075
T0
M30
